# xmcd CD database file
#
# Track frame offsets:
#	150
#	25935
#	51507
#	77242
#
# Disc length: 1368 seconds
#
# Revision: 0
# Processed by: cddbd v1.5.1PL0 Copyright (c) Steve Scherf et al.
# Submitted via: CDex 1.51
#
DISCID=2e055604
DTITLE=LAZY - Zone Of The Enders
DYEAR=1900
DGENRE=Hard Rock
TTITLE0=Zone Of The Enders
TTITLE1=Shadows Of War!
TTITLE2=Zone Of The Enders(Off Vocal Version)
TTITLE3=Shadows Of War!(Off Vocal Version)
EXTD=
EXTT0=
EXTT1=
EXTT2=
EXTT3=
PLAYORDER=
